<?xml version="1.0" encoding="UTF-8"?>
<svg id="_Шар_1" data-name="Шар 1" xmlns="http://www.w3.org/2000/svg" xmlns:xlink="http://www.w3.org/1999/xlink" viewBox="0 0 260.25 352.5">
  <defs>
    <style>
      .cls-1 {
        fill: #448dc0;
      }

      .cls-2 {
        fill: url(#_Градієнт_без_назви_357);
      }

      .cls-3 {
        fill: url(#_Градієнт_без_назви_358);
      }

      .cls-4 {
        fill: #4d94c5;
      }

      .cls-5 {
        fill: #94d5b8;
      }

      .cls-6 {
        fill: #94d5b9;
      }

      .cls-7 {
        fill: #abd9c7;
      }

      .cls-8 {
        fill: #acdcc8;
      }

      .cls-9 {
        fill: #72b3d7;
      }

      .cls-10 {
        fill: url(#_Градієнт_без_назви_359);
      }

      .cls-11 {
        fill: #6cafd4;
      }

      .cls-12 {
        fill: #cfe9de;
      }

      .cls-13 {
        fill: #c5e2d5;
      }
    </style>
    <linearGradient id="_Градієнт_без_назви_357" data-name="Градієнт без назви 357" x1="-583.25" y1="729.79" x2="-731.5" y2="1148.31" gradientTransform="translate(619.96 -537.75) scale(.75)" gradientUnits="userSpaceOnUse">
      <stop offset="0" stop-color="#76b7da"/>
      <stop offset=".23" stop-color="#77b7d9"/>
      <stop offset="1" stop-color="#307ab2"/>
    </linearGradient>
    <linearGradient id="_Градієнт_без_назви_358" data-name="Градієнт без назви 358" x1="-660.11" y1="768.73" x2="-587.43" y2="897.66" gradientTransform="translate(619.96 -537.75) scale(.75)" gradientUnits="userSpaceOnUse">
      <stop offset="0" stop-color="#347fba"/>
      <stop offset="1" stop-color="#74b5d8"/>
    </linearGradient>
    <linearGradient id="_Градієнт_без_назви_359" data-name="Градієнт без назви 359" x1="-590.47" y1="954.51" x2="-631.06" y2="1064.24" gradientTransform="translate(619.96 -537.75) scale(.75)" gradientUnits="userSpaceOnUse">
      <stop offset="0" stop-color="#6db0d4"/>
      <stop offset="1" stop-color="#307cb6"/>
    </linearGradient>
  </defs>
  <path class="cls-2" d="M151.81,1.5c8.54.74,17.01,1.99,25.43,3.75,22.45,5.64,42.49,16.47,59.86,31.84,4.32,3.83,9.45,9.09,12.68,13.91l-3.28-1.05c-73.7-60.67-179.52-.38-180.69,91.05-1.23,13.07.65,27.43,5.23,39.75.4,5.2,3.03,9.62,5.64,13.96l-.41,1.79c.99.5,2.03,1.09,2.61,2.07,9.47,15.79,16.34,27.14,30.4,39.67,35.24,31.42,85.36,42,127.26,17.13l3.5-.38c-7.46,11.29-19.47,20.37-29.17,30h-.75l-66.35,66.79c-2.08.32-3.2-.86-4.71-1.9-12.13-8.36-34.85-35.75-47.1-47.64l-.75-.75C49.35,260.82,8.13,231.57,1.5,168c-.61-11.69-.59-23.54,0-35.25C8.92,59.54,76.07-5.87,151.81,1.5Z"/>
  <path class="cls-3" d="M249.78,51c18.84,18.62,6.93,55.99-21.28,57.78-20.41,1.3-25.72-13.94-40.25-24.2-48.81-34.45-116.97-1.85-122.44,56.41-2.68-38.66,22.38-79.94,54.66-100.06,38.69-24.11,95.84-23.03,129.31,10.06Z"/>
  <path class="cls-10" d="M77.78,194.25c26.83,42.93,79.53,48.35,118.16,17.25l.75-.75c3.5-2.81,6.3-7.49,9.93-9.97,38.51-26.26,64.24,34.86,33.44,54.22-60.7,38.16-135.42,2.19-163.78-58.5-.72-2.25-.22-3,1.5-2.25Z"/>
  <path class="cls-6" d="M92.73,150c.12-1.59,1.7-2.84,1.14-4.45l-12-7.54c-.46-.92,1.33-2.08,1.94-2.58,2.48-2.04,54.65-24.72,58.86-25.71,1.67-.39,3.37-.27,5.07-.26l60.07,26.79c.25,1.4-.99,1.33-1.73,1.8-9.8,6.3-36.9,15.52-49.03,20.2-1.1.71-1.85.22-2.23-1.47-3.06,2.65-5.74,3.04-9.45.84-4.89,1.3-9.72,1.51-14.5.63-11.07-4.13-22.11-9.65-32.91-13.5-1.42.27-2.08,1.02-1.98,2.24l.48,9.76c.59,3.84,4.63,14.05,2.62,18l-9.37.39c-1.96-2.35-.17-5.09.02-7.15,1.02-2.79,1.76-6.54,2.24-11.25.99-2.32,1.24-4.57.75-6.75Z"/>
  <path class="cls-5" d="M138.35,190.5c-7.45-.42-23.4-2.83-28.07-8.98-4.91-6.47-2.6-18.4-2.96-26.29l36.66,14.32,36.95-13.52c.84.6.36,18.73.06,20.6-1.63,10.19-21.59,13.29-29.93,13.86h-12.71Z"/>
  <path class="cls-5" d="M130.87,158.25l14.71-2.07c6.24,2.73,5.56,1.48,9.58-2.43l1.88,4.51c-3.34,1.29-8.64,5.14-12.35,5.3-4.99-.21-9.5-3.68-13.82-5.3Z"/>
  <path class="cls-1" d="M77.78,194.25l-1.5,2.25c-2.44-5.22-6.52-8.49-5.23-15.75,1.27,3.41,4.78,10.38,6.73,13.5Z"/>
  <path class="cls-9" d="M177.24,5.25c-8.53-.2-16.96-2.93-25.43-3.75,8.67-.56,17.11,1.66,25.43,3.75Z"/>
  <path class="cls-4" d="M1.5,168c-1.22-11.7-1.19-23.55,0-35.25v35.25Z"/>
  <path class="cls-8" d="M91.98,156.75c-.32,2.96-.16,5.47-.72,8.69-.24,1.39.83,3-1.52,2.56.44-4.85.85-6.65,2.24-11.25Z"/>
  <path class="cls-12" d="M97.97,144.75c-3.39,1.09-.61,9.27-1.5,12-.67-4.34-1.07-8.36-.74-12.75,1.28-.52,1.81.59,2.24.75Z"/>
  <path class="cls-13" d="M151.06,190.5c-3.83.26-8.87.22-12.71,0h12.71Z"/>
  <path class="cls-7" d="M91.98,156.75c.23-2.14.59-4.7.75-6.75,2.26,2.17-.2,4.95-.75,6.75Z"/>
  <path class="cls-11" d="M195.94,211.5c.27-.22.47-.53.75-.75l-.75.75Z"/>
  <path class="cls-4" d="M91.98,302.25l-.75-.75c.25.25.5.5.75.75Z"/>
</svg>